<?xml version="1.0" encoding="UTF-8" standalone="no"?>
<!DOCTYPE svg PUBLIC "-//W3C//DTD SVG 1.1//EN"
 "http://www.w3.org/Graphics/SVG/1.1/DTD/svg11.dtd">
<!-- Generated by graphviz version 2.47.3 (20210619.1520)
 -->
<!-- Title: dependencies Pages: 1 -->
<svg width="584pt" height="250pt"
 viewBox="0.00 0.00 584.00 249.80" xmlns="http://www.w3.org/2000/svg" xmlns:xlink="http://www.w3.org/1999/xlink">
<g id="graph0" class="graph" transform="scale(1 1) rotate(0) translate(4 245.8)">
<title>dependencies</title>
<polygon fill="white" stroke="transparent" points="-4,4 -4,-245.8 580,-245.8 580,4 -4,4"/>
<text text-anchor="middle" x="288" y="-8.2" font-family="sans-serif" font-size="14.00">dependencies</text>
<g id="clust1" class="cluster">
<title>cluster_AppModule</title>
<polygon fill="none" stroke="black" stroke-dasharray="1,5" points="80,-108.8 80,-233.8 450,-233.8 450,-108.8 80,-108.8"/>
</g>
<g id="clust3" class="cluster">
<title>cluster_AppModule_imports</title>
<polygon fill="none" stroke="black" points="226,-116.8 226,-168.8 442,-168.8 442,-116.8 226,-116.8"/>
</g>
<g id="clust6" class="cluster">
<title>cluster_AppModule_providers</title>
<polygon fill="none" stroke="black" points="88,-116.8 88,-168.8 218,-168.8 218,-116.8 88,-116.8"/>
</g>
<g id="clust7" class="cluster">
<title>cluster_TicketModule</title>
<polygon fill="none" stroke="black" stroke-dasharray="1,5" points="406,-32.8 406,-100.8 568,-100.8 568,-32.8 406,-32.8"/>
</g>
<g id="clust12" class="cluster">
<title>cluster_TicketModule_providers</title>
<polygon fill="none" stroke="black" points="414,-40.8 414,-92.8 560,-92.8 560,-40.8 414,-40.8"/>
</g>
<g id="clust13" class="cluster">
<title>cluster_UserModule</title>
<polygon fill="none" stroke="black" stroke-dasharray="1,5" points="8,-32.8 8,-100.8 398,-100.8 398,-32.8 8,-32.8"/>
</g>
<g id="clust16" class="cluster">
<title>cluster_UserModule_exports</title>
<polygon fill="none" stroke="black" points="288,-40.8 288,-92.8 390,-92.8 390,-40.8 288,-40.8"/>
</g>
<g id="clust18" class="cluster">
<title>cluster_UserModule_providers</title>
<polygon fill="none" stroke="black" points="16,-40.8 16,-92.8 280,-92.8 280,-40.8 16,-40.8"/>
</g>
<!-- TicketModule -->
<g id="node1" class="node">
<title>TicketModule</title>
<polygon fill="#8dd3c7" stroke="black" points="433.81,-160.8 430.81,-164.8 409.81,-164.8 406.81,-160.8 338.19,-160.8 338.19,-124.8 433.81,-124.8 433.81,-160.8"/>
<text text-anchor="middle" x="386" y="-138.6" font-family="Times,serif" font-size="14.00">TicketModule</text>
</g>
<!-- AppModule -->
<g id="node3" class="node">
<title>AppModule</title>
<polygon fill="#8dd3c7" stroke="black" points="318.66,-225.8 315.66,-229.8 294.66,-229.8 291.66,-225.8 235.34,-225.8 235.34,-189.8 318.66,-189.8 318.66,-225.8"/>
<text text-anchor="middle" x="277" y="-203.6" font-family="Times,serif" font-size="14.00">AppModule</text>
</g>
<!-- TicketModule&#45;&gt;AppModule -->
<g id="edge1" class="edge">
<title>TicketModule&#45;&gt;AppModule</title>
<path fill="none" stroke="black" d="M386,-160.91C386,-180.14 386,-207.8 386,-207.8 386,-207.8 328.83,-207.8 328.83,-207.8"/>
<polygon fill="black" stroke="black" points="328.83,-204.3 318.83,-207.8 328.83,-211.3 328.83,-204.3"/>
</g>
<!-- UserModule -->
<g id="node2" class="node">
<title>UserModule</title>
<polygon fill="#8dd3c7" stroke="black" points="319.98,-160.8 316.98,-164.8 295.98,-164.8 292.98,-160.8 234.02,-160.8 234.02,-124.8 319.98,-124.8 319.98,-160.8"/>
<text text-anchor="middle" x="277" y="-138.6" font-family="Times,serif" font-size="14.00">UserModule</text>
</g>
<!-- UserModule&#45;&gt;AppModule -->
<g id="edge2" class="edge">
<title>UserModule&#45;&gt;AppModule</title>
<path fill="none" stroke="black" d="M277,-160.91C277,-160.91 277,-179.79 277,-179.79"/>
<polygon fill="black" stroke="black" points="273.5,-179.79 277,-189.79 280.5,-179.79 273.5,-179.79"/>
</g>
<!-- JwtStrategy  -->
<g id="node6" class="node">
<title>JwtStrategy </title>
<polygon fill="#fb8072" stroke="black" points="381.6,-84.8 296.4,-84.8 296.4,-48.8 381.6,-48.8 381.6,-84.8"/>
<text text-anchor="middle" x="339" y="-62.6" font-family="Times,serif" font-size="14.00">JwtStrategy </text>
</g>
<!-- UserModule&#45;&gt;JwtStrategy  -->
<g id="edge5" class="edge">
<title>UserModule&#45;&gt;JwtStrategy </title>
<path fill="none" stroke="black" stroke-dasharray="5,2" d="M308.1,-124.79C308.1,-124.79 308.1,-94.95 308.1,-94.95"/>
<polygon fill="black" stroke="black" points="311.6,-94.95 308.1,-84.95 304.6,-94.95 311.6,-94.95"/>
</g>
<!-- AppService -->
<g id="node4" class="node">
<title>AppService</title>
<ellipse fill="#fdb462" stroke="black" cx="153" cy="-142.8" rx="56.74" ry="18"/>
<text text-anchor="middle" x="153" y="-138.6" font-family="Times,serif" font-size="14.00">AppService</text>
</g>
<!-- AppService&#45;&gt;AppModule -->
<g id="edge3" class="edge">
<title>AppService&#45;&gt;AppModule</title>
<path fill="none" stroke="black" d="M153,-160.91C153,-180.14 153,-207.8 153,-207.8 153,-207.8 225.02,-207.8 225.02,-207.8"/>
<polygon fill="black" stroke="black" points="225.02,-211.3 235.02,-207.8 225.02,-204.3 225.02,-211.3"/>
</g>
<!-- TicketService -->
<g id="node5" class="node">
<title>TicketService</title>
<ellipse fill="#fdb462" stroke="black" cx="487" cy="-66.8" rx="64.82" ry="18"/>
<text text-anchor="middle" x="487" y="-62.6" font-family="Times,serif" font-size="14.00">TicketService</text>
</g>
<!-- TicketService&#45;&gt;TicketModule -->
<g id="edge4" class="edge">
<title>TicketService&#45;&gt;TicketModule</title>
<path fill="none" stroke="black" d="M428,-74.37C428,-74.37 428,-114.68 428,-114.68"/>
<polygon fill="black" stroke="black" points="424.5,-114.68 428,-124.68 431.5,-114.68 424.5,-114.68"/>
</g>
<!-- JwtStrategy -->
<g id="node7" class="node">
<title>JwtStrategy</title>
<ellipse fill="#fdb462" stroke="black" cx="215" cy="-66.8" rx="56.76" ry="18"/>
<text text-anchor="middle" x="215" y="-62.6" font-family="Times,serif" font-size="14.00">JwtStrategy</text>
</g>
<!-- JwtStrategy&#45;&gt;UserModule -->
<g id="edge6" class="edge">
<title>JwtStrategy&#45;&gt;UserModule</title>
<path fill="none" stroke="black" d="M259.09,-78.34C259.09,-78.34 259.09,-114.63 259.09,-114.63"/>
<polygon fill="black" stroke="black" points="255.59,-114.63 259.09,-124.63 262.59,-114.63 255.59,-114.63"/>
</g>
<!-- UserService -->
<g id="node8" class="node">
<title>UserService</title>
<ellipse fill="#fdb462" stroke="black" cx="82" cy="-66.8" rx="58.44" ry="18"/>
<text text-anchor="middle" x="82" y="-62.6" font-family="Times,serif" font-size="14.00">UserService</text>
</g>
<!-- UserService&#45;&gt;UserModule -->
<g id="edge7" class="edge">
<title>UserService&#45;&gt;UserModule</title>
<path fill="none" stroke="black" d="M118.3,-80.95C118.3,-91.75 118.3,-104.8 118.3,-104.8 118.3,-104.8 246.55,-104.8 246.55,-104.8 246.55,-104.8 246.55,-114.69 246.55,-114.69"/>
<polygon fill="black" stroke="black" points="243.05,-114.69 246.55,-124.69 250.05,-114.69 243.05,-114.69"/>
</g>
</g>
</svg>
